<?xml version="1.0" encoding="utf-8"?>
<!-- Generator: Adobe Illustrator 22.1.0, SVG Export Plug-In . SVG Version: 6.00 Build 0)  -->
<svg version="1.1" id="Calque_1" xmlns="http://www.w3.org/2000/svg"  x="0px" y="0px"
	 viewBox="0 0 330 330" style="enable-background:new 0 0 330 330;" xml:space="preserve">
<style type="text/css">
	.st0{fill:#343434;}
</style>
<g>
	<path class="st0" d="M212.4,61.8c16.6,0.1,33,0.3,49.5,0.4c0.1-0.6,0.1-1.3,0.2-1.9c0.5-4,2.2-6,6.1-6.7c4.1-0.8,8.2-0.6,12.3,0.3
		c0.7,0.2,1.3,0.4,1.9,0.7c1.6,0.7,2.6,1.9,2.9,3.6c0.3,1.4,0.4,2.9,0.7,4.4c0.9,0.1,1.9,0.2,2.8,0.2c5,0.2,9.9,0.7,14.7,2.2
		c2.5,0.8,4.9,1.7,7.2,2.9c5.6,2.8,9.5,7.2,11.9,13c1.8,4.4,2.8,8.9,3.5,13.5c0.9,6.2,1.1,12.4,0.9,18.7c-0.3,9.2-0.7,18.4-1.1,27.6
		c-0.1,3.5-0.3,7-0.3,10.5c0.1,16.8,0.2,33.5,0.5,50.3c0.2,14.5,0.4,28.9,0,43.4c-0.1,4.9-0.1,9.7-0.3,14.6
		c-0.3,6.6-0.5,13.2-1.4,19.8c-0.5,3.5-1.2,7-2.5,10.3c-2.8,7.2-8.1,11.3-15.6,12.5c-3.3,0.5-6.6,0.5-9.9,0.6
		c-2,0.1-4.1,0.1-6.1,0.1c-0.5,0-0.9,0.1-1.5,0.1c0,1.2,0,2.3,0,3.5c0,0.3,0,0.6,0,0.9c-0.1,3.9-1.8,5.9-5.7,6.5
		c-3.4,0.5-6.8,0.4-10.2,0.1c-1.4-0.1-2.7-0.1-4.1-0.4c-3.2-0.6-4.9-2.5-5.2-5.8c-0.1-0.8,0-1.6,0-2.7c-0.9,0-1.7,0-2.4,0
		c-3.8,0.1-7.6,0.2-11.4,0.2c-10.5,0.1-21,0.4-31.4,0.4c-21.1-0.1-42.1-0.2-63.2-0.4c-12-0.1-24-0.4-36-0.5c-4.5,0-9.1,0.2-13.6,0.3
		c-9.9,0.1-19.9,0.1-29.8,0.1c-0.2,0-0.4,0-0.7,0.1c0,0.5,0.1,1.1,0.1,1.6c-0.1,1.5-0.2,3.1-0.5,4.6c-0.4,1.7-1.6,2.7-3.4,3
		c-3.9,0.5-7.7,1-11.6,0.7c-0.6-0.1-1.3-0.1-1.9-0.2c-3.9-0.6-5.4-2.4-5.5-6.3c0-1.4,0-2.8,0-4.3c-1.1-0.1-2-0.2-2.9-0.3
		c-6.1-0.5-12.3-0.7-18.3-1.8c-5.3-0.9-10.6-2.3-15.2-5.3c-2.9-1.9-5.4-4.1-7-7.2c-1.8-3.5-3-7.2-3.3-11.1c-0.3-4-0.5-8.1-0.5-12.1
		c-0.2-9-0.3-17.9-0.4-26.9c-0.1-7-0.2-14-0.3-21c-0.1-5-0.2-9.9-0.3-14.9c-0.2-10.3-0.5-20.7-0.6-31C3.1,155.3,3,138.2,3,121
		c0-4.1,0.1-8.3,0.3-12.4c0.4-6.6,0.9-13.2,1.4-19.8c0.3-3.8,1-7.6,2.6-11.2c0.6-1.4,1.3-2.8,2.1-4.2c2.8-4.4,7-6.6,12-7.7
		c5.4-1.1,10.9-1.5,16.4-1.8c2.1-0.1,4.2-0.2,6.5-0.3c0-0.5,0.1-1,0.1-1.5c0.1-2.9,1.5-4.7,4.3-5.5c3.7-1.1,7.6-1.2,11.4-1
		c0.7,0,1.4,0.1,2,0.2c2.4,0.2,4,1.5,4.8,3.7c0.3,0.8,0.4,1.6,0.7,2.4c0.1,0.5,0.2,0.9,0.3,1.4c14.3-0.1,28.5-0.3,42.8-0.4
		c0-0.3,0.1-0.7,0.1-1c0-5.2-0.1-10.4,0.1-15.6c0.3-5.7,0.8-11.5,1.5-17.2c0.6-5.4,3.7-9,8.7-11c2.8-1.1,5.8-1.6,8.8-2
		c4.9-0.8,9.9-1,14.9-1c12.9-0.1,25.7-0.2,38.6-0.2c3.7,0,7.5,0.2,11.2,1.1c2.3,0.5,4.6,1.4,6.7,2.4c5.9,2.9,9.3,7.6,10.5,14
		c0.7,3.5,0.8,7,0.8,10.5c0,5.4-0.1,10.8-0.1,16.2C212.4,60.1,212.4,60.9,212.4,61.8z M200.2,263.3c-0.3-1.1-0.6-2-0.8-2.8
		c-2.5-10.9-5.1-21.7-8.2-32.4c-1.2-4-2.5-8-3.8-12c-0.6-1.8-1.5-3.4-2.8-4.7c-3.2-3.4-7.6-3-10.2,0.9c-1,1.5-1.6,3.1-1.8,4.9
		c-0.4,3.6-0.8,7.2-1.1,10.7c-0.4,5.1-0.9,10.1-2.1,15c-0.4,1.7-1.1,3.4-1.8,5.1c-0.2,0.5-0.4,1-1,1.1c-0.1-0.4-0.3-0.8-0.4-1.2
		c-0.9-3.5-1.2-7.1-1.4-10.7c-0.3-5.3-0.6-10.7-1.5-16c-0.5-3.1-1.1-6.1-2.5-9c-0.6-1.3-1.4-2.4-2.6-3.2c-2.2-1.4-4.7-1.1-6.3,0.8
		c-0.6,0.7-1,1.5-1.5,2.3c-0.2,0.4-0.4,0.8-0.6,1.2c-0.1-0.1-0.1-0.1-0.2-0.2c-0.2-0.4-0.4-0.9-0.6-1.3c-1.5-3.2-3.7-5.7-6.7-7.6
		c-4.8-2.9-10.7-2.5-15,1c-2.4,1.9-4,4.3-5.3,7.1c-2.1,4.6-3.1,9.5-3.5,14.6c-0.5,6.8,0.4,13.4,2.8,19.8c0.2,0.4,0.2,1,0.1,1.4
		c-0.9,3.4-2,6.7-2.9,10.1c-0.9,3.2-1.9,6.3-3.3,9.4c-0.7,1.4-1.5,2.7-2.3,4.1c-0.2,0.3-0.5,0.5-0.9,0.9c-0.4-1-0.9-1.8-1.1-2.7
		c-1.1-3.4-1.7-6.9-2-10.4c-0.6-7.1,0.3-14.1,1.3-21.1c0.9-6.6,2-13.2,3-19.8c0.5-3.2,0.4-6.4-0.2-9.6c-0.9-4.8-3.5-8.2-8.3-9.6
		c-2.1-0.6-4.3-0.7-6.4-0.3c-4,0.8-7.9,1.7-11.8,2.6c-0.7,0.1-1.3,0.3-2,0.5c-0.1-0.4-0.2-0.7-0.2-1c-0.4-3.1-1.1-6.1-2.3-9
		c-1-2.4-2.4-4.5-4.3-6.2c-1.4-1.3-2.9-2-4.9-2.1c-3.1,0-5.5,1.4-7.4,3.8c-2.6,3.4-3.4,7.3-2.8,11.6c1,6.6,5.9,11.3,12.5,12
		c1.7,0.2,3.5-0.1,5.3-0.1c0,0.1,0.1,0.3,0.1,0.6c-0.1,3.4-0.1,6.7-0.4,10.1c-0.5,5.2-1,10.5-1.7,15.7c-0.9,6.5-2.7,12.9-5.6,18.8
		c-0.8,1.7-1.9,3.3-3,4.8c-1.4,1.9-3.8,2.1-5.7,0.8c-1.7-1.1-3-2.5-4-4.2c-1.5-2.5-2.8-5.1-3.7-7.9c-2.9-9.1-4.5-18.5-5.2-28.1
		c-0.3-4.5,0.1-9,0.1-13.4c0-0.5,0.1-0.9,0.2-1.5c1.7,0.6,3,1.5,4.2,2.6c0.7,0.7,1.5,1.3,2.3,1.8s1.6,0.5,2.3-0.1
		c0.7-0.6,0.8-1.5,0.5-2.3s-0.7-1.6-1.3-2.3c-1.4-1.8-3.1-3.1-5.1-4.1c-0.8-0.4-1.6-0.7-2.5-1.1c0.2-1.7,0.4-3.5,0.6-5.2
		c0.4-3,0.7-5.9,0.4-8.9c-0.1-1.5-0.4-3-1-4.4c-1.4-3.3-4.9-3.7-7.1-0.8c-0.7,1-1.4,2-1.8,3.2c-0.8,2.2-1.4,4.4-2.1,6.7
		c-0.6,2.2-1.1,4.5-1.7,6.9c-2.8-0.7-5.5-1.2-8-2.5c-1.2-0.6-2.2-1.4-3-2.5c-2-2.5-2.7-5.4-2.8-8.4c-0.1-1.8-0.1-3.7-0.2-5.5
		c-0.1-1.4-0.6-2.8-1.5-3.9c-2.1-2.7-5.5-2.7-7.6-0.1c-1.1,1.3-1.7,2.9-2,4.5c-1,5-0.4,9.8,1.6,14.4c2.4,5.4,6.5,8.8,12.1,10.3
		c2.8,0.8,5.6,1.2,8.5,1.2c0.5,0,1,0,1.6,0c0,0.4,0,0.7-0.1,1c-0.2,3.3-0.5,6.5-0.7,9.8c-0.2,4.9,0.2,9.8,1.1,14.7
		c1.1,6.2,2.4,12.2,4.7,18.1c2.7,6.8,6.7,12.5,12.7,16.8c2.3,1.7,4.9,2.7,7.6,3.1c3.6,0.5,6.9-0.3,9.5-3.1c1.2-1.4,2.4-2.8,3.4-4.4
		c2.7-4.4,4.5-9.2,5.7-14.2c1.9-8.1,2.5-16.3,2.8-24.5c0.2-4.4,0.1-8.8,0.1-13.2c0-0.2,0.1-0.5,0.1-0.8c3.1-1,6.1-2,9.2-2.8
		c1.6-0.5,3.3-0.7,5.1-0.2c1.9,0.5,2.5,1.2,2.3,3.1c-0.2,2.3-0.6,4.6-1.1,6.9c-2.1,9.9-4.4,19.7-5.5,29.7c-0.6,5.7-0.8,11.4,0.4,17
		c0.8,3.7,1.9,7.4,3.8,10.7c1.5,2.7,3.5,5.1,6.1,6.7c3.4,2.1,7.2,1.6,9.9-1.5c0.5-0.5,0.9-1.1,1.3-1.8c1.4-2.1,2.4-4.5,3.2-6.9
		c1.9-5.4,3.3-10.9,4.6-16.4c0.1-0.4,0.2-0.7,0.4-1.2c0.5,0.5,0.8,0.9,1.2,1.3c1.5,1.7,3.3,3.2,5.4,4.2c3.2,1.5,6.4,1.2,9.3-0.8
		c1.3-0.9,2.5-2.2,3.5-3.5c2-2.4,3.4-5.2,4.6-8.1c0.5-1.2,1-2.5,1.6-3.8c0.1,0.1,0.2,0.2,0.3,0.2c0.1,0.3,0.2,0.6,0.2,0.8
		c0.6,2.7,1.4,5.4,2.8,7.8c1.1,1.9,2.5,3.6,4.3,4.9c0.9,0.6,1.8,1.1,2.8,1.5c3.3,1.2,6.3,0.3,8.4-2.6c1.5-2.1,2.5-4.4,3.3-6.8
		c1.9-5.6,2.9-11.4,3.8-17.2c0.1-0.3,0.2-0.6,0.3-1c0.3,0.2,0.3,0.4,0.4,0.6c1.6,6.9,3.2,13.7,5,20.6c1.5,6.1,3.2,12.1,5.8,17.9
		c0.8,1.8,1.9,3.4,2.9,5.1c0.8,1.2,1.9,2.1,3.2,2.7c2.6,1.3,5.3,0.7,7-1.6c0.8-1,1.4-2.2,1.8-3.5c0.9-2.6,1.7-5.3,2.5-7.9
		c2.6-9.5,5.2-19.1,7-28.8c0.3-1.3,0.5-2.6,0.8-4.1c3,2.1,6,3.8,9.3,4.7c0.3,2.3,0.6,4.4,1,6.5c1.3,7.3,4.5,13.5,9.7,18.8
		c2.5,2.6,5.3,4.7,8.9,5.7c7.1,2.1,13.7,1,19.8-3.1c0.4-0.3,0.8-0.6,1.3-0.9c0.7,1.7,1.2,3.2,1.9,4.6c2.6,6,7,10.1,12.9,12.7
		c2,0.8,4.1,1.4,6.3,1.1c4.6-0.5,8.1-2.7,10.5-6.5c1-1.6,1.9-3.4,2.6-5.2c2.2-5.7,3.6-11.6,4.5-17.7c0.3-1.7,0.3-3.5-0.3-5.2
		c-0.4-1.2-1-2.1-2.3-2.3c-1.3-0.2-2.3,0.5-2.9,1.6c-0.6,1-1.1,2.1-1.4,3.2c-0.5,1.7-0.9,3.5-1.2,5.3c-0.8,4.3-2.3,8.4-4.4,12.2
		c-0.4,0.8-0.9,1.5-1.4,2.2c-1.2,1.5-3.4,1.5-4.5-0.1c-0.5-0.7-1-1.5-1.3-2.3c-0.7-2-1.5-4-2-6.1c-1.8-7.2-2.1-14.6-2.9-22
		c-0.1-0.5,0.1-1.2,0.4-1.7c5.7-12.3,10-25.1,12.9-38.4c1.4-6.3,2-12.7,1.3-19.2c-0.3-2.6-0.9-5.2-2.1-7.6c-0.9-1.7-2-3.2-3.6-4.3
		c-1.7-1.2-3.6-1.6-5.7-1.2c-2.2,0.4-4,1.5-5.6,2.9c-1.7,1.5-3.1,3.2-4.3,5.1c-1.7,2.7-3,5.7-4.1,8.7c-4.1,11.5-5.9,23.4-6.7,35.5
		c-0.3,4.4-0.4,8.8-0.5,13.1c0,3.2,0,6.3,0.2,9.5c0.3,4,1,7.9,1.5,11.9c0.1,0.6,0,1-0.6,1.3c-1.8,1.2-3.7,1.5-5.7,1
		c-3.6-1-6.3-3.2-8.2-6.4c-1.7-2.9-2.7-6.1-3.6-9.4c-0.2-0.9-0.4-1.9-0.6-2.8c3-1.3,5.2-3.2,7.1-5.6c3.9-5.2,4.8-10.8,2.3-16.8
		c-2.8-6.9-10.9-9.5-17.2-5.6c-2.6,1.6-4.8,3.7-6.6,6.2c-2.2,3.2-3.4,6.8-4.3,10.5c-0.3,1.4-0.5,2.7-0.8,4.3
		c-0.5-0.3-0.9-0.5-1.3-0.7c-2.2-1.3-4.2-3-6-4.9c-0.8-0.8-1-1.6-0.9-2.7c0.2-3,0.4-5.9,0.5-8.9c0.1-2.8,0-5.7-0.5-8.4
		c-0.6-2.9-1.6-5.6-3.8-7.8c-3.7-3.6-8.3-2.9-10.8,1.6c-0.3,0.5-0.5,1-0.7,1.5c-0.8,2.1-1.2,4.2-1.1,6.4c0.3,5.4,2,10.3,4.8,14.8
		c1.5,2.4,3.2,4.5,5.2,6.5c0.5,0.5,0.7,1,0.6,1.8c-0.3,1.3-0.4,2.7-0.6,4c-1.6,10-3.7,19.9-6.6,29.6
		C200.6,262.1,200.5,262.6,200.2,263.3z M129,62.8c0.6,0,1.1,0,1.7,0c7.8-0.1,15.7-0.2,23.5-0.3c12.1-0.1,24.2,0,36.2-0.1
		c0.6,0,1.1,0,1.8-0.1c0.1-1,0.2-1.9,0.2-2.8c0.2-4.5,0.4-9,0.5-13.6c0.1-2.3,0.1-4.6,0.1-6.9c0-1.9-0.9-3.2-2.8-3.6
		c-1.5-0.3-2.9-0.7-4.4-0.8c-7.3-0.3-14.5-0.5-21.8-0.6c-6.9-0.1-13.8,0.1-20.7,0.1c-2.8,0-5.5-0.2-8.3-0.2c-1.3,0-2.5,0.2-3.8,0.3
		c-1,0.1-1.6,0.8-1.7,1.7c-0.2,1.1-0.4,2.1-0.4,3.2c0,7.4,0,14.7,0,22.1C128.9,61.9,128.9,62.3,129,62.8z M236.1,126.9
		c0,0.6,0,1.3,0,1.9c-0.3,7,0.3,13.8,2.3,20.5c1.4,4.6,3.2,9.1,6.2,13c1.1,1.5,2.5,2.9,4.1,3.9c3.1,1.8,6.2,2,9.5,0.5
		c1.9-0.9,3.5-2.1,4.8-3.7c2.2-2.6,3.5-5.7,4.3-9c1.4-5.1,2.2-10.3,2.7-15.5c0.8-7.3,1.2-14.6,0.5-21.9c-0.4-3.9-1.1-7.8-2.6-11.5
		c-2.1-5.2-5.7-9.1-11-11c-4.8-1.7-9-0.7-12.6,2.9c-0.8,0.8-1.4,1.6-2,2.5c-1.9,2.7-3.2,5.8-4.2,9
		C236.3,114.4,236.1,120.6,236.1,126.9z M225.7,141.7c0.2,0.3,0.3,0.5,0.3,0.7c0.7,4.6,0.4,9-1.2,13.4c-0.4,1-1.1,1.9-1.8,2.8
		c-1,1.1-2.3,1.3-3.7,0.7c-1.4-0.6-2.3-1.6-3.1-2.8c-1.5-2.3-2.6-4.7-3.2-7.3c-2.3-10.9-2.8-22-1.7-33.1c0.3-2.9,0.9-5.8,2-8.5
		c0.5-1.2,1.1-2.4,2.2-3.2c0.9-0.7,1.8-1,3-0.8c1.3,0.3,2.2,1,2.8,2.1c0.5,0.8,0.9,1.7,1.5,2.5c0.7,0.9,1.8,1.2,2.9,0.8
		s1.9-1.3,1.9-2.5c0-0.8-0.1-1.7-0.4-2.4c-2.3-6.6-8-9.4-14.4-8.6c-3.6,0.4-6.1,2.6-8.2,5.4c-2.1,3-3.5,6.3-4.4,9.8
		c-1.1,4.6-1.6,9.2-1.9,13.9c-0.5,7.2,0.3,14.4,2,21.4c1.3,5.2,3.3,10.1,6.6,14.3c2.4,3.1,5.4,5.1,9,6.4c5.4,1.9,12.7,0.3,14.9-7.6
		c1.7-5.8,2.3-11.7,1.9-17.8c-0.3-3.7-2.4-5.7-6.1-6c-2.7-0.2-5.3,0.1-8,0.7c-0.4,0.1-0.8,0.3-1.2,0.5c-1.3,0.7-2,2.1-1.7,3.4
		c0.3,1.4,1.5,2.4,3,2.5c0.7,0,1.5-0.1,2.2-0.2C222.6,141.9,224.2,141.8,225.7,141.7z M94.5,99.7c0.7,0,1.2,0,1.8,0s1.2,0,1.8,0
		c1.4,0,2.4-0.7,2.7-1.8s-0.2-2.1-1.5-2.9c-1.2-0.7-2.5-1.1-3.9-1.1c-2.5-0.1-5-0.2-7.4-0.1c-1.6,0.1-3.3,0.5-4.8,0.9
		c-1.3,0.4-2.1,1.4-2.2,2.8c-0.1,1.1-0.2,2.2-0.2,3.3c0,5.2,0,10.4,0,15.6c0,1.9,0,3.7,0.1,5.6c0.1,3.3,0.3,6.6,0.4,9.9
		c0.2,9.6,0.3,19.2,0.4,28.8c0,0.6,0.1,1.2,0.2,1.7c0.4,2,1.2,2.8,3.3,3.1c4.6,0.7,9.3,0.9,14,0.7c1.2-0.1,2.4-0.2,3.6-0.5
		c1.5-0.3,2.3-1.5,2.3-2.8c0-1.4-1-2.5-2.5-2.8c-0.5-0.1-1-0.1-1.5-0.1c-1.5-0.1-3-0.1-4.5-0.2c-0.5,0-0.9-0.1-1.5-0.2
		c0-4.3,0-8.4,0-12.6c0.4,0,0.8,0,1.2,0.1c2.4,0.1,4.7,0,6.9-0.7c1.8-0.5,2.7-2,2.5-3.6c-0.3-1.5-1.6-2.6-3.4-2.6
		c-1,0-2,0.2-3.1,0.2c-1.4,0.1-2.8,0.2-4.2,0C94.8,126.9,94.7,113.4,94.5,99.7z M133.2,101.8c0.9,0,1.7,0,2.5,0
		c1.6-0.1,2.8-1.1,3.1-2.6c0.3-1.4-0.5-2.9-1.9-3.6c-0.6-0.3-1.3-0.5-1.9-0.6c-5.3-0.8-10.6-1.1-15.9-0.5c-1.3,0.1-2.6,0.5-3.8,0.9
		c-1.3,0.5-2.1,2-1.9,3.3c0.2,1.3,1.2,2.3,2.7,2.5c0.6,0.1,1.3,0.1,1.9,0.1c0.4,0,0.7,0.1,0.9,0.1c0,1.3,0,2.4,0,3.5
		c0.1,2.3,0.1,4.7,0.2,7c0.1,3.1,0.2,6.2,0.4,9.3c0.3,5.6,0.7,11.2,1,16.8c0.3,5.7,0.6,11.4,0.9,17.1c0.2,2.3,0.6,4.6,0.9,6.9
		c0.4,2.1,1.6,3.6,3.8,3.9c1.4,0.2,2.9,0.2,4.4,0.1c1.7-0.1,2.8-1.2,3.1-3c0.1-0.7,0.2-1.4,0.2-2.2c0.1-5.1,0.2-10.1,0.3-15.2
		c0.1-12.6-0.5-25.2-1-37.8C133.1,106,133.2,104,133.2,101.8z M63.6,159.1c-0.1-0.4-0.1-0.6-0.1-0.8c-0.1-3.1-0.2-6.1-0.3-9.2
		c-0.2-10.3-0.4-20.6-0.6-31c-0.1-5.9-0.4-11.8-0.6-17.7c-0.1-2.3-1.5-3.9-3.8-4c-1.8-0.1-3.6,0-5.4,0.2c-1.9,0.2-3,1.3-3.3,3.1
		c-0.2,1-0.3,1.9-0.3,2.9c0,5.3,0.1,10.6,0.2,15.9c0.1,5.4,0.2,10.7,0.4,16.1c0.2,6.1,0.4,12.2,0.6,18.2c0.1,2.3,0.1,4.7,0.2,7
		c0.2,3.3,1.1,4.4,4.4,4.5c6.1,0.2,12.2,0.3,18.3,0.5c0.2,0,0.4,0,0.6,0c1.8-0.3,2.8-2.1,2.2-3.8c-0.5-1.1-1.4-1.8-2.6-1.8
		c-1.7-0.1-3.3-0.2-5-0.2C66.9,159.1,65.3,159.1,63.6,159.1z M172.4,154.3c0.3,1.5-0.7,3.2-2.6,4.3c-1.2,0.7-2.1,0.7-3.1-0.3
		c-0.8-0.7-1.4-1.6-2.1-2.4c-1-1.2-1.8-2.4-2.8-3.5s-2-1.3-3-0.8c-0.9,0.5-1.2,1.4-1.1,2.8c0.1,1.5,0.9,2.8,1.7,4
		c1.6,2.7,3.6,5.1,6.4,6.7c1.6,1,3.3,1.6,5.2,1.6c5.5,0.2,10.1-3.3,11.5-8.8c0.8-3.1,0.8-6.2,0.2-9.3c-1.6-8.4-4.1-16.6-7-24.7
		c-1.6-4.2-3.5-8.3-5.2-12.5c-0.6-1.5-1.1-3-1.5-4.6c-0.2-0.7-0.1-1.4,0-2.2c0.1-0.7,0.5-1,1.2-1c0.6,0.1,1.2,0.1,1.7,0.3
		c1.8,0.6,3.4,1.4,4.7,2.9c0.9,1.1,2.3,0.5,2.4-0.8c0.1-0.6,0.1-1.2-0.1-1.7c-0.3-0.9-0.7-1.8-1.2-2.6c-1.7-2.4-3.9-4.2-6.8-5
		c-4.5-1.4-8.8,0.2-11.3,4.2c-1.8,2.8-2.3,5.9-1.8,9.1c0.4,2.8,1.6,5.3,2.6,7.9c3.2,7.8,6.3,15.5,9.4,23.3
		C171.3,145.1,172.1,149.3,172.4,154.3z M30.2,130.9c0,3.2,3.1,6.5,6.2,6.4c3.3,0,6.4-3.3,6.3-6.8c-0.1-3.3-2.8-6-6.1-6
		C33.2,124.5,30.2,127.5,30.2,130.9z M154.6,98.1c0-1.8-0.4-3.4-1.2-4.5c-0.9-1.4-2.2-2-3.6-1.7c-1.5,0.3-2.3,1.4-2.5,2.9
		c-0.2,1.1-0.3,2.2-0.2,3.3c0,2.5-0.1,5-1.1,7.3c-0.1,0.4-0.2,0.8-0.3,1.1c-0.2,1.6,0.5,2.9,1.9,3.4s2.8-0.1,3.6-1.5
		c0.5-0.9,1-1.8,1.4-2.7C153.9,103.2,154.5,100.7,154.6,98.1z M277.8,130.9c0,1.3,1.1,3.1,3,4.3c2.9,1.9,6.6,0.7,7.9-2.5
		c0.3-0.7,0.5-1.4,0.7-2.1c1.1-4-2.9-8-6.9-7C279.7,124.4,277.7,127,277.8,130.9z M181.9,129.6c0.1,1.9,1,3.9,3,5.2
		c3,1.8,6.6,0.3,7.6-3c0.5-1.9,0-3.6-1-5.3c-1.3-2.1-3.6-3.1-5.9-2.5C183.4,124.6,181.9,126.8,181.9,129.6z"/>
	<path class="st0" d="M148.4,229.5c0,2.4,0,4.8,0,7.2c0,0.6-0.1,1.3-0.4,1.8c-1.4,2.5-2.8,5-4.4,7.4c-0.9,1.3-2,2.5-3.2,3.5
		c-1.4,1.2-2.6,1-3.4-0.7c-0.9-1.8-1.7-3.7-2.2-5.7c-2.2-8.8-2.1-17.6,0.1-26.4c0.4-1.7,1.1-3.2,2.1-4.6c1.1-1.5,2-1.8,3.8-1.1
		c1.2,0.5,2.2,1.3,3.1,2.2c2.1,2.3,3.5,5,4.5,7.9c0.1,0.3,0.1,0.7,0.2,1C148.4,224.4,148.4,227,148.4,229.5L148.4,229.5z"/>
	<path class="st0" d="M275.8,224.9c0-0.8,0-1.6,0-2.4c0.1-2.6,0.1-5.3,0.2-7.9c0.2-9.8,0.8-19.7,1.9-29.4c0.3-3,0.7-5.9,1.7-8.7
		c0.4-1.1,0.9-2.3,1.5-3.3c0.8-1.2,1.6-1.3,2.6-0.3c0.5,0.5,1,1.2,1.3,1.9c0.9,1.9,1.1,4,1.2,6.1c0.3,4.8-0.3,9.6-1,14.4
		c-1.4,9.8-4.8,19-8.5,28.2c-0.2,0.5-0.4,1-0.7,1.5C276,225,275.9,225,275.8,224.9z"/>
	<path class="st0" d="M240.8,228.9c-1.1-2.9,0.1-11.5,2-13.6c1.1,0.1,1.8,0.6,2.2,1.7c1.2,3.8-0.7,9.5-3.9,11.8
		C241,228.9,240.9,228.9,240.8,228.9z"/>
	<path class="st0" d="M209.4,214.9c-0.1-0.1-0.3-0.1-0.3-0.2c-1.8-3.6-3-7.4-3.2-11.4c-0.1-1.2,0-2.4,0.7-3.6
		c0.7,0.1,1.1,0.7,1.3,1.2c0.5,1.3,1.1,2.7,1.4,4.1c0.6,3,0.4,6.1,0.3,9.1C209.6,214.5,209.5,214.7,209.4,214.9z"/>
	<path class="st0" d="M76.3,195.3c0.6,0.4,1.3,0.8,1.7,1.3c1.3,2,1.8,4.2,2.1,6.6C76.3,202.4,74.4,198.2,76.3,195.3z"/>
	<path class="st0" d="M254,103.7c1.4,0.5,2,1.6,2.5,2.7c1.3,2.5,2,5.1,2.6,7.9c1,4.9,1.4,9.8,1.5,14.8c0.1,6.2,0,12.5-0.9,18.6
		c-0.4,2.5-0.8,4.9-2,7.1c-0.3,0.6-0.8,1.3-1.3,1.8c-0.8,0.8-1.5,0.7-2.3-0.1c-1.1-1.1-1.9-2.4-2.3-3.9c-0.7-2.3-1.3-4.7-1.7-7.1
		c-1.2-7-1.2-14.2-0.7-21.3c0.2-3.1,0.4-6.1,0.7-9.2c0.3-2.8,0.7-5.5,1.7-8.1C252.2,105.8,252.8,104.6,254,103.7z"/>
</g>
</svg>
